<?xml version="1.0" encoding="utf-8"?>
<!-- Generator: Adobe Illustrator 23.0.0, SVG Export Plug-In . SVG Version: 6.00 Build 0)  -->
<svg version="1.1" id="图层_1" xmlns="http://www.w3.org/2000/svg" xmlns:xlink="http://www.w3.org/1999/xlink" x="0px" y="0px"
	 viewBox="0 0 2500 708" style="enable-background:new 0 0 2500 708;" xml:space="preserve">
<style type="text/css">
	.st0{fill:#FFFFFF;}
</style>
<g>
	<g>
		<path class="st0" d="M874.1,602.9L698.8,704.1c-3,1.7-6.1,2.3-9.5,2.5h-2.1c-3.3-0.1-6.5-0.7-9.5-2.5L502.4,602.9
			c-6.5-3.8-10.6-10.7-10.5-18.3l0.4-271.6c0-3.8,1.9-7.3,5.3-9.1c3.2-1.9,7.3-1.9,10.5,0l104,59.7c6.6,3.9,10.9,10.7,10.9,18.3
			v126.8c0,7.6,4,14.5,10.5,18.3l44.3,25.6c3.2,1.9,6.8,2.8,10.5,2.8c3.6,0,7.3-0.9,10.5-2.8l44.3-25.6c6.5-3.8,10.6-10.7,10.5-18.3
			V381.9c0-7.5,4.3-14.4,10.9-18.3l104-59.7c3.2-1.9,7.3-1.9,10.5,0c3.3,1.9,5.3,5.4,5.3,9.1l0.3,271.6
			C884.7,592.2,880.7,599.2,874.1,602.9z"/>
	</g>
	<g>
		<path class="st0" d="M1982.9,484.2l119-83.6l-175-96.5c-6.6-3.6-14.6-3.5-21.1,0.3l-173.6,103.1c-6.5,3.9-10.2,11-10.1,18.6
			l4.4,198.4c0.2,7.3,4,14.1,10.4,17.8l104.5,59.7c3.3,1.9,7.4,2.1,10.7,0.1c3.3-1.9,5.2-5.4,5.1-9.1l-3.9-201.6
			c-0.1-3.8,2-7.7,5.2-9.6l54.2-32.2c3.2-1.9,7.4-1.7,10.7,0.1l55.3,30.5C1980.6,481.3,1981.9,482.6,1982.9,484.2z"/>
	</g>
	<path class="st0" d="M314.1,473.5c-6.5,3.8-14.6,3.8-21.1,0l-52-30.1V291.6c0.1,0.1,0.3,0.2,0.4,0.3l60.1,34.8
		c1.6,0.9,3.6,0.9,5.3,0l60.1-34.8c1-0.6,1.8-1.5,2.3-2.5l113.3,87L314.1,473.5z"/>
	<path class="st0" d="M1118.9,704.2c-6.5,3.8-14.6,3.8-21.1,0L922.5,603c-6.5-3.8-10.6-10.7-10.5-18.3V80.2
		c0-7.7,4.2-14.8,10.9-18.6l104.3-58.3c1.6-0.9,3.5-1.1,5.3-1c1.8,0,3.7,0.5,5.3,1.4c3.2,1.9,5.3,5.4,5.3,9.1v268.8
		c0,1,0.2,1.9,0.5,2.7v163c-0.1,0.4-0.1,0.7-0.1,1.1V518c0,1.9,1.2,3.6,2.8,4.6l60.1,34.8c1.6,0.9,3.6,0.9,5.3,0l60.1-34.8
		c1-0.6,1.8-1.5,2.3-2.5l113.3,87L1118.9,704.2z"/>
	<path class="st0" d="M1046.9,143.7c-6.5-3.8-14.6-3.8-21.1,0l-52.1,30.1v151.9c0.1-0.1,0.3-0.2,0.4-0.3l60.1-34.8
		c1.6-0.9,3.6-0.9,5.3,0l60.1,34.8c1,0.6,1.8,1.5,2.3,2.5l113.3-87L1046.9,143.7z"/>
	<g>
		<path class="st0" d="M1683.9,603.9l-175.3,101.2c-3,1.7-6.1,2.3-9.5,2.5h-2.1c-3.3-0.1-6.5-0.7-9.5-2.5l-175.3-101.2
			c-6.5-3.8-10.6-10.7-10.5-18.3l0.4-271.6c0-3.8,1.9-7.3,5.3-9.1c3.2-1.9,7.3-1.9,10.5,0l104,59.7c6.6,3.9,10.9,10.7,10.9,18.3
			v126.8c0,7.6,4,14.5,10.5,18.3l44.3,25.6c3.2,1.9,6.8,2.8,10.5,2.8c3.6,0,7.3-0.9,10.5-2.8l44.3-25.6c6.5-3.8,10.6-10.7,10.5-18.3
			V382.9c0-7.5,4.3-14.4,10.9-18.3l104-59.7c3.2-1.9,7.3-1.9,10.5,0c3.3,1.9,5.3,5.4,5.3,9.1l0.3,271.6
			C1694.5,593.2,1690.5,600.2,1683.9,603.9z"/>
		<path class="st0" d="M2372.7,47.9L2372.7,47.9L2372.7,47.9z"/>
	</g>
	<path class="st0" d="M319.9,7.7c-6.5-3.8-14.6-3.8-21.1,0L123.5,108.9c-6.5,3.8-10.6,10.7-10.5,18.3v504.5
		c0,7.7,4.2,14.8,10.9,18.6l104.3,58.3c1.6,0.9,3.5,1.1,5.3,1c1.8,0,3.7-0.5,5.3-1.4c3.2-1.9,5.3-5.4,5.3-9.1V430.3
		c0-1,0.2-1.9,0.5-2.7v-163c-0.1-0.4-0.1-0.7-0.1-1.1v-69.6c0-1.9,1.2-3.6,2.8-4.6l60.1-34.8c1.6-0.9,3.6-0.9,5.3,0l60.1,34.8
		c1,0.6,1.8,1.5,2.3,2.5l113.3-87L319.9,7.7z"/>
	<path class="st0" d="M2360.1,3.3v296.1l-62.5-37.4l-186.4,111.6v223.2l186.4,111.6L2484,596.7V72L2360.1,3.3z M2359.7,522.2
		l-62.1,37.2l-62.1-37.2v-74.3l62.1-37.2l62.1,37.2V522.2z"/>
</g>
</svg>
